# AST/ASF file generated using VICON BodyLanguage
# -----------------------------------------------
:version 1.10
:name VICON
:units
  mass 1.0
  length 0.45
  angle deg
:documentation
   .ast/.asf automatically generated from VICON data using
   VICON BodyBuilder and BodyLanguage model FoxedUp or BRILLIANT.MOD
:root
   order TX TY TZ RX RY RZ
   axis XYZ
   position 0 0 0  
   orientation 0 0 0 
:bonedata
  begin
     id 1 
     name lhipjoint
     direction 0.734343 -0.627749 0.258209 
     length 2.5437 
     axis 0 0 0  XYZ
  end
  begin
     id 2 
     name lfemur
     direction 0.34202 -0.939693 0  
     length 6.7391  
     axis 0 0 20  XYZ
    dof rx ry rz
    limits (-160.0 20.0)
           (-70.0 70.0)
           (-60.0 70.0)
  end
  begin
     id 3 
     name ltibia
     direction 0.34202 -0.939693 0   
     length 7.21536   
     axis 0 0 20   XYZ
    dof rx
    limits (-10.0 170.0)
  end
  begin
     id 4 
     name lfoot
     direction 0.0489572 -0.134509 0.989702   
     length 1.61313   
     axis -90 7.62852e-016 20   XYZ
    dof rx rz
    limits (-45.0 90.0)
           (-70.0 20.0)
  end
  begin
     id 5 
     name ltoes
     direction 1.53451e-011 -4.21692e-011 1   
     length 0.823104   
     axis -90 7.62852e-016 20   XYZ
    dof rx
    limits (-90.0 20.0)
  end
  begin
     id 6 
     name rhipjoint
     direction -0.746398 -0.615468 0.253157   
     length 2.59446  
     axis 0 0 0  XYZ 
  end
  begin
     id 7 
     name rfemur
     direction -0.34202 -0.939693 0   
     length 6.7075   
     axis 0 0 -20   XYZ
    dof rx ry rz
    limits (-160.0 20.0)
           (-70.0 70.0)
           (-70.0 60.0)
  end
  begin
     id 8 
     name rtibia
     direction -0.34202 -0.939693 0   
     length 7.27262   
     axis 0 0 -20   XYZ
    dof rx
    limits (-10.0 170.0)
 end
 begin
     id 9 
     name rfoot
     direction -0.0455203 -0.125066 0.991104   
     length 1.91095  
     axis -90 -7.62852e-016 -20   XYZ
    dof rx rz
    limits (-45.0 90.0)
           (-20.0 70.0)
  end
  begin
     id 10 
     name rtoes
     direction -1.53601e-011 -4.21913e-011 1   
     length 0.969037   
     axis -90 -7.62852e-016 -20   XYZ
    dof rx
    limits (-90.0 20.0)
  end
  begin
     id 11 
     name lowerback
     direction 0.0181546 0.999122 -0.0377542   
     length 1.99916   
     axis 0 0 0   XYZ
    dof rx ry rz
    limits (-20.0 45.0)
           (-30.0 30.0)
           (-30.0 30.0)
  end
  begin
     id 12 
     name upperback
     direction 0.0203486 0.99589 0.0882534   
     length 1.951   
     axis 0 0 0   XYZ
    dof rx ry rz
    limits (-20.0 45.0)
           (-30.0 30.0)
           (-30.0 30.0)
  end
  begin
     id 13 
     name thorax
     direction 0.0131685 0.994241 0.106355   
     length 1.97461   
     axis 0 0 0   XYZ
    dof rx ry rz
    limits (-20.0 45.0)
           (-30.0 30.0)
           (-30.0 30.0)
  end
  begin
     id 14 
     name lowerneck
     direction -0.0281395 0.999325 0.023617   
     length 1.7959   
     axis 0 0 0   XYZ
    dof rx ry rz
    limits (-20.0 45.0)
           (-30.0 30.0)
           (-30.0 30.0)
  end
  begin
     id 15 
     name upperneck
     direction 0.0288721 0.991984 -0.123019   
     length 1.79917   
     axis 0 0 0   XYZ
    dof rx ry rz
    limits (-20.0 45.0)
           (-30.0 30.0)
           (-30.0 30.0)
  end
  begin
     id 16
     name head
     direction 0.0133797 0.998944 -0.0439492  
     length 1.80902  
     axis 0 0 0   XYZ
    dof rx ry rz
    limits (-20.0 45.0)
           (-30.0 30.0)
           (-30.0 30.0)
  end
  begin
     id 17 
     name lclavicle
     direction 0.919195 0.377107 0.113449  
     length 3.17815  
     axis 0 0 0   XYZ
    dof ry rz
    limits (-20.0 10.0)
           (0.0 20.0)
  end
  begin
     id 18 
     name lhumerus
     direction 1 -4.48959e-011 2.13129e-027   
     length 4.84137   
     axis 180 -30 -90   XYZ
    dof rx ry rz
    limits (-60.0 90.0)
           (-90.0 90.0)
           (-90.0 90.0)
  end
  begin
     id 19
     name lradius
     direction 1 -4.48957e-011 -6.30627e-028   
     length 3.2452   
     axis 180 -30 -90   XYZ
    dof rx
    limits (-10.0 170.0)
  end
  begin
     id 20
     name lwrist
     direction 1 -4.4901e-011 9.13299e-027   
     length 1.6226   
     axis -6.84618e-015 90 90   XYZ
    dof ry
    limits (-180.0 0.0)
 end
  begin
     id 21 
     name lhand
     direction 1 -4.48816e-011 1.82293e-026   
     length 0.521221   
     axis -1.16502e-014 90 90   XYZ
    dof rx rz
    limits (-90.0 90.0)
           (-45.0 45.0)
  end
  begin
     id 22 
     name lfingers
     direction 1 -4.49108e-011 3.65687e-026   
     length 0.420221   
     axis -2.33008e-014 90 90   XYZ
    dof rx
    limits (0.0 90.0)
  end
  begin
     id 23
     name lthumb
     direction 0.707107 -6.34943e-011 0.707107   
     length 0.603356   
     axis -90 45 5.69224e-014   XYZ
    dof rx rz
    limits (-45.0 45.0)
           (-45.0 45.0)
  end
  begin
     id 24 
     name rclavicle
     direction -0.90847 0.38596 0.160368   
     length 3.12973  
     axis 0 0 0   XYZ 
    dof ry rz
    limits (-10.0 20.0)
           (-20.0 0.0)
  end
  begin
     id 25 
     name rhumerus
     direction -1 -4.48974e-011 4.47268e-028  
     length 4.72284   
     axis 180 30 90   XYZ
    dof rx ry rz
    limits (-90.0 60.0)
           (-90.0 90.0)
           (-90.0 90.0)
  end
  begin
     id 26 
     name rradius
     direction -1 -4.48969e-011 3.43203e-027   
     length 3.23459   
     axis 180 30 90   XYZ
    dof rx
    limits (-10.0 170.0)
  end
  begin
     id 27 
     name rwrist
     direction -1 -4.48969e-011 9.12911e-027   
     length 1.6173   
     axis -6.84618e-015 -90 -90   XYZ
    dof ry
    limits (-180.0 0.0)
  end
  begin
     id 28
     name rhand
     direction -1 -4.49194e-011 1.83006e-026   
     length 0.307416   
     axis -1.16502e-014 -90 -90   XYZ
    dof rx rz
    limits (-90.0 90.0)
           (-45.0 45.0)
  end
  begin
     id 29
     name rfingers
     direction -1 -4.48423e-011 3.63103e-026   
     length 0.247847   
     axis -2.33008e-014 -90 -90   XYZ
    dof rx
    limits (0.0 90.0)
  end
  begin
     id 30
     name rthumb
     direction -0.707107 -6.34802e-011 0.707107   
     length 0.35586   
     axis -90 -45 -5.69224e-014   XYZ
    dof rx rz
    limits (-45.0 45.0)
           (-45.0 45.0)
  end
:hierarchy
  begin
    root lhipjoint rhipjoint lowerback
    lhipjoint lfemur
    lfemur ltibia
    ltibia lfoot
    lfoot ltoes
    rhipjoint rfemur
    rfemur rtibia
    rtibia rfoot
    rfoot rtoes
    lowerback upperback
    upperback thorax
    thorax lowerneck lclavicle rclavicle
    lowerneck upperneck
    upperneck head
    lclavicle lhumerus
    lhumerus lradius
    lradius lwrist
    lwrist lhand lthumb
    lhand lfingers
    rclavicle rhumerus
    rhumerus rradius
    rradius rwrist
    rwrist rhand rthumb
    rhand rfingers
  end

#!OML:ASF \\Waltz\H\Terrain\Patient Classification 1\Animal1\Tuesday\Animal1.ASF
:FULLY-SPECIFIED
:DEGREES
570
root -2.44044 16.3689 0.836031 13.9808 -17.6146 0.162861
lowerback -3.487 -0.789412 -1.21547
upperback -11.77 -1.10069 1.35804
thorax -10.5104 -0.392913 2.20206
lowerneck -3.15901 -0.795265 -6.23711
upperneck 22.9381 -3.83411 14.9499
head 7.89151 -1.14726 5.82064
rclavicle 3.38928e-014 -3.57812e-015
rhumerus -10.6805 25.0081 -88.7091
rradius 136.905
rwrist -74.7496
rhand -22.4386 13.7949
rfingers 7.12502
rthumb 3.98525 -16.1476
lclavicle 3.38928e-014 -3.57812e-015
lhumerus -8.86975 -21.1366 88.3281
lradius 121.447
lwrist 14.3201
lhand 17.6582 64.9934
lfingers 7.12502
lthumb 42.3476 89.4659
rfemur -29.7509 18.3129 23.1555
rtibia 34.0135
rfoot -11.0706 -16.7666
rtoes 2.62319
lfemur -38.3367 -20.7473 -6.78221
ltibia 62.5242
lfoot 27.0399 -13.1397
ltoes 5.79628
571
root -2.44268 16.3632 0.82973 14.0127 -17.3807 -0.0356939
lowerback -3.50437 -0.888593 -1.0366
upperback -11.5875 -1.21321 1.52914
thorax -10.2836 -0.458382 2.28639
lowerneck -3.96122 -0.737137 -6.4409
upperneck 23.3214 -3.77559 15.0716
head 8.16744 -1.0849 5.92453
rclavicle 4.96962e-015 1.59028e-014
rhumerus -9.94142 24.9364 -88.2298
rradius 138.975
rwrist -75.4049
rhand -20.7999 13.3598
rfingers 7.12502
rthumb 5.56756 -16.5471
lclavicle 4.96962e-015 1.59028e-014
lhumerus -8.99083 -20.2622 88.5314
lradius 118.295
lwrist 12.4685
lhand 19.7963 68.6075
lfingers 7.12502
lthumb 44.3453 267.64
rfemur -29.7637 18.3499 23.4012
rtibia 34.0817
rfoot -10.8769 -17.0213
rtoes 2.04795
lfemur -38.5527 -20.9462 -6.4374
ltibia 62.6103
lfoot 27.4018 -12.5403
ltoes 7.89056
572
root -2.44488 16.3622 0.824831 13.9354 -17.0369 -0.0228448
lowerback -3.3872 -1.01169 -1.21094
upperback -11.5251 -1.36759 1.72148
thorax -10.2679 -0.506803 2.59908
lowerneck -4.39826 -0.741232 -6.65441
upperneck 23.6019 -3.76388 15.0324
head 8.34542 -1.07691 5.9648
rclavicle 5.30755e-014 2.78299e-014
rhumerus -9.67021 24.0078 -87.4631
rradius 140.048
rwrist -76.6154
rhand -19.848 12.4981
rfingers 7.12502
rthumb 6.48659 -17.3826
lclavicle 5.30755e-014 2.78299e-014
lhumerus -9.47074 -19.5957 89.008
lradius 116.557
lwrist 11.6699
lhand 20.8251 68.5698
lfingers 7.12502
lthumb 45.3029 268.051
rfemur -29.7433 18.2972 23.4405
rtibia 34.2137
rfoot -10.842 -17.2416
rtoes 1.85239
lfemur -38.7689 -21.3428 -6.29489
ltibia 62.6544
lfoot 28.2811 -11.2398
ltoes 11.8033
573
root -2.44749 16.3596 0.821359 13.7566 -16.763 0.207193
lowerback -3.26041 -1.1504 -1.47894
upperback -11.4958 -1.56291 1.71181
thorax -10.2941 -0.577919 2.75144
lowerneck -4.44726 -0.758271 -6.76769
upperneck 23.5732 -3.79101 15.1311
head 8.35102 -1.09002 6.01766
rclavicle -1.86858e-014 1.35174e-014
rhumerus -9.6416 22.4691 -86.8254
rradius 139.865
rwrist -77.9577
rhand -19.7555 11.9809
rfingers 7.12502
rthumb 6.57588 -17.897
lclavicle -1.86858e-014 1.35174e-014
lhumerus -10.1457 -19.0897 89.2169
lradius 116.289
lwrist 11.8998
lhand 21.7453 69.8287
lfingers 7.12502
lthumb 46.1573 267.143
rfemur -29.6968 18.2394 23.2456
rtibia 34.3484
rfoot -10.8287 -17.3929
rtoes 1.91274
lfemur -38.8421 -21.7471 -6.46209
ltibia 62.6884
lfoot 28.6573 -10.6573
ltoes 12.973
574
root -2.45357 16.3592 0.816357 13.6361 -16.5594 0.41087
lowerback -3.12806 -1.2213 -1.67802
upperback -11.4726 -1.678 1.54381
thorax -10.3395 -0.624518 2.69198
lowerneck -4.41121 -0.827379 -6.7107
upperneck 23.2458 -3.92139 15.4127
head 8.25405 -1.13162 6.08296
rclavicle 3.98563e-014 3.81667e-014
rhumerus -9.73753 20.4565 -86.1831
rradius 138.619
rwrist -78.2918
rhand -21.1203 11.3355
rfingers 7.12502
rthumb 5.25821 -18.5792
lclavicle 3.98563e-014 3.81667e-014
lhumerus -10.7469 -18.9537 89.2797
lradius 117.257
lwrist 12.7812
lhand 22.1893 68.2054
lfingers 7.12502
lthumb 46.5689 268.941
rfemur -29.7283 18.2103 23.0631
rtibia 34.4492
rfoot -10.8964 -17.4728
rtoes 2.80969
lfemur -38.9505 -21.9874 -6.61869
ltibia 62.7357
lfoot 28.7927 -10.6164
ltoes 12.8681
575
root -2.46077 16.3587 0.81287 13.6045 -16.2733 0.41941
lowerback -3.01612 -1.33839 -1.70772
upperback -11.4944 -1.84592 1.45108
thorax -10.4233 -0.707949 2.62276
lowerneck -4.22296 -0.839648 -6.72438
upperneck 22.8477 -3.98168 15.8077
head 8.09821 -1.14572 6.20368
rclavicle 4.03036e-014 3.06128e-014
rhumerus -10.1254 18.5831 -85.4581
rradius 136.449
rwrist -77.3737
rhand -23.8591 11.4573
rfingers 7.12502
rthumb 2.61344 -18.5064
lclavicle 4.03036e-014 3.06128e-014
lhumerus -11.2916 -18.8796 89.313
lradius 119.193
lwrist 14.4161
lhand 23.1688 66.9559
lfingers 7.12502
lthumb 47.4748 89.4101
rfemur -29.7376 18.1033 23.1179
rtibia 34.5141
rfoot -10.9359 -17.6034
rtoes 3.36425
lfemur -39.1524 -22.2468 -6.48534
ltibia 62.8042
lfoot 29.0835 -10.0676
ltoes 14.2791
576
root -2.46495 16.3554 0.815167 13.6193 -15.9203 0.137316
lowerback -2.91285 -1.58753 -1.43204
upperback -11.4936 -2.16611 1.57132
thorax -10.4692 -0.884014 2.61994
lowerneck -4.11124 -0.741976 -6.89403
upperneck 22.5977 -3.86525 16.1286
head 7.98373 -1.08999 6.34685
rclavicle 2.40529e-014 -7.95139e-015
rhumerus -10.5323 17.2619 -84.7951
rradius 133.228
rwrist -76.315
rhand -26.3959 13.1942
rfingers 7.12502
rthumb 0.163381 -16.7855
lclavicle 2.40529e-014 -7.95139e-015
lhumerus -11.5173 -18.4598 89.1919
lradius 121.814
lwrist 16.782
lhand 24.7494 65.6932
lfingers 7.12502
lthumb 48.9309 87.4597
rfemur -29.5968 17.925 23.5193
rtibia 34.535
rfoot -10.8955 -17.7952
rtoes 3.02712
lfemur -39.2643 -22.5118 -6.06998
ltibia 62.8866
lfoot 29.233 -9.3289
ltoes 16.2349
577
root -2.46766 16.3529 0.818758 13.5991 -15.6369 0.0444569
lowerback -2.862 -1.78949 -1.32062
upperback -11.4581 -2.43801 1.54434
thorax -10.4486 -1.03061 2.54534
lowerneck -3.96502 -0.783552 -6.72842
upperneck 22.2883 -3.92053 16.1698
head 7.85962 -1.11463 6.31203
rclavicle 1.66482e-014 2.0276e-014
rhumerus -10.7368 15.8214 -84.4103
rradius 129.152
rwrist -75.2302
rhand -27.5311 14.5651
rfingers 7.12502
rthumb -0.933004 -15.4126
lclavicle 1.66482e-014 2.0276e-014
lhumerus -11.1186 -18.3013 88.8752
lradius 124.818
lwrist 19.7605
lhand 24.6879 64.7551
lfingers 7.12502
lthumb 48.8745 86.5494
rfemur -29.477 17.7507 23.6988
rtibia 34.5161
rfoot -10.9073 -17.9454
rtoes 2.92928
lfemur -39.305 -22.706 -5.91306
ltibia 62.9243
lfoot 29.0649 -9.93214
ltoes 14.4421
578
root -2.47036 16.3474 0.818938 13.5465 -15.5269 0.175438
lowerback -2.8582 -1.91691 -1.51259
upperback -11.405 -2.62532 1.42844
thorax -10.3776 -1.11325 2.53682
lowerneck -3.75373 -0.912054 -6.62252
upperneck 21.9097 -4.08414 16.2156
head 7.71627 -1.20078 6.27893
rclavicle -7.74763e-014 -2.78299e-014
rhumerus -10.7702 14.2409 -84.1604
rradius 124.7
rwrist -74.1054
rhand -28.8916 14.3892
rfingers 7.12502
rthumb -2.24701 -15.5787
lclavicle -7.74763e-014 -2.78299e-014
lhumerus -10.1912 -18.3672 88.5222
lradius 128.07
lwrist 23.0251
lhand 22.7504 64.2023
lfingers 7.12502
lthumb 47.0881 86.8296
rfemur -29.4454 17.6938 23.5962
rtibia 34.4757
rfoot -10.8686 -18.0714
rtoes 2.18425
lfemur -39.2946 -22.7404 -6.04966
ltibia 62.9331
lfoot 28.8788 -10.5889
ltoes 12.2164
